#tb 0: 1/44100
#media_type 0: audio
#codec_id 0: pcm_s16le
#sample_rate 0: 44100
#channel_layout_name 0: mono
0,          0,          0,     1152,     2304, 0x4cffbc3b
0,       1152,       1152,     1152,     2304, 0x616c78e6
0,       2304,       2304,     1152,     2304, 0x3efa65c1
0,       3456,       3456,     1152,     2304, 0x4cb18644
0,       4608,       4608,     1152,     2304, 0xbe136a3a
0,       5760,       5760,     1152,     2304, 0x8eda8d57
0,       6912,       6912,     1152,     2304, 0x8fda871e
0,       8064,       8064,     1152,     2304, 0x7e4b6e0a
0,       9216,       9216,     1152,     2304, 0xef447a62
0,      10368,      10368,     1152,     2304, 0x417181c1
0,      11520,      11520,     1152,     2304, 0xfa7973f0
0,      12672,      12672,     1152,     2304, 0x65e6854c
0,      13824,      13824,     1152,     2304, 0x57c2656a
0,      14976,      14976,     1152,     2304, 0x32227a0d
0,      16128,      16128,     1152,     2304, 0x895773ad
0,      17280,      17280,     1152,     2304, 0x6e3b7b87
0,      18432,      18432,     1152,     2304, 0x472e8b25
0,      19584,      19584,     1152,     2304, 0x193f7e3b
0,      20736,      20736,     1152,     2304, 0x634b82a5
0,      21888,      21888,     1152,     2304, 0xa792783a
0,      23040,      23040,     1152,     2304, 0xc2b19032
0,      24192,      24192,     1152,     2304, 0x7a8a7634
0,      25344,      25344,     1152,     2304, 0x551a7c96
0,      26496,      26496,     1152,     2304, 0xf21e80d5
0,      27648,      27648,     1152,     2304, 0xa0927c10
0,      28800,      28800,     1152,     2304, 0x7abe8049
0,      29952,      29952,     1152,     2304, 0xca03796b
0,      31104,      31104,     1152,     2304, 0xf7c47d03
0,      32256,      32256,     1152,     2304, 0xb6537988
0,      33408,      33408,     1152,     2304, 0xd5f27ccd
0,      34560,      34560,     1152,     2304, 0xcf567fe0
0,      35712,      35712,     1152,     2304, 0x35df6f7b
0,      36864,      36864,     1152,     2304, 0xbd5676b8
0,      38016,      38016,     1152,     2304, 0x64b7754d
0,      39168,      39168,     1152,     2304, 0x230b58fe
0,      40320,      40320,     1152,     2304, 0xe1e07cb1
0,      41472,      41472,     1152,     2304, 0x1114751b
0,      42624,      42624,     1152,     2304, 0x85af7edf
0,      43776,      43776,     1152,     2304, 0xddae788c
0,      44928,      44928,     1152,     2304, 0x8cce7df5
0,      46080,      46080,     1152,     2304, 0x688278d7
0,      47232,      47232,     1152,     2304, 0x6e7671f3
0,      48384,      48384,     1152,     2304, 0x088577d9
0,      49536,      49536,     1152,     2304, 0x1fe1745d
0,      50688,      50688,     1152,     2304, 0x6b1881d9
0,      51840,      51840,     1152,     2304, 0x9efb7778
0,      52992,      52992,     1152,     2304, 0xa4a67f94
0,      54144,      54144,     1152,     2304, 0x0ffa9081
0,      55296,      55296,     1152,     2304, 0x88966ce3
0,      56448,      56448,     1152,     2304, 0xa33294f3
0,      57600,      57600,     1152,     2304, 0xb3fe88a2
0,      58752,      58752,     1152,     2304, 0x59c762f9
0,      59904,      59904,     1152,     2304, 0xf060785a
0,      61056,      61056,     1152,     2304, 0x8ef181c5
0,      62208,      62208,     1152,     2304, 0x1b2377d5
0,      63360,      63360,     1152,     2304, 0x984780c5
0,      64512,      64512,     1152,     2304, 0xc9c28f9c
0,      65664,      65664,     1152,     2304, 0xbd408e11
0,      66816,      66816,     1152,     2304, 0xce317c52
0,      67968,      67968,     1152,     2304, 0xa03c8013
0,      69120,      69120,     1152,     2304, 0x136c81d8
0,      70272,      70272,     1152,     2304, 0x4f647cbc
0,      71424,      71424,     1152,     2304, 0xa1b779ee
0,      72576,      72576,     1152,     2304, 0x0aae88f1
0,      73728,      73728,     1152,     2304, 0x4043749e
0,      74880,      74880,     1152,     2304, 0x2ab88c2e
0,      76032,      76032,     1152,     2304, 0x4f897bd8
0,      77184,      77184,     1152,     2304, 0xf99f75b4
0,      78336,      78336,     1152,     2304, 0x5975743e
0,      79488,      79488,     1152,     2304, 0xa5b4879f
0,      80640,      80640,     1152,     2304, 0x4a197f5d
0,      81792,      81792,     1152,     2304, 0xea177c5b
0,      82944,      82944,     1152,     2304, 0x05e17e17
0,      84096,      84096,     1152,     2304, 0x37c37d25
0,      85248,      85248,     1152,     2304, 0x5f888150
0,      86400,      86400,     1152,     2304, 0x473e7315
0,      87552,      87552,     1152,     2304, 0x8ccb829d
0,      88704,      88704,     1152,     2304, 0x8ee175eb
0,      89856,      89856,     1152,     2304, 0x068d6c7a
0,      91008,      91008,     1152,     2304, 0x98c375cf
0,      92160,      92160,     1152,     2304, 0x3f9371a2
0,      93312,      93312,     1152,     2304, 0x3f9f6721
0,      94464,      94464,     1152,     2304, 0x0fc2661c
0,      95616,      95616,     1152,     2304, 0xa2298728
0,      96768,      96768,     1152,     2304, 0x15447aa0
0,      97920,      97920,     1152,     2304, 0xf62b8e5a
0,      99072,      99072,     1152,     2304, 0x191d837a
0,     100224,     100224,     1152,     2304, 0x24d980c9
0,     101376,     101376,     1152,     2304, 0x1fc379d2
0,     102528,     102528,     1152,     2304, 0x76988ab4
0,     103680,     103680,     1152,     2304, 0x0b327c04
0,     104832,     104832,     1152,     2304, 0xc0a786b1
0,     105984,     105984,     1152,     2304, 0x547e6f60
0,     107136,     107136,     1152,     2304, 0x64ab74dd
0,     108288,     108288,     1152,     2304, 0xf81377af
0,     109440,     109440,     1152,     2304, 0xdfcf7ba2
0,     110592,     110592,     1152,     2304, 0x0edf6949
0,     111744,     111744,     1152,     2304, 0xb75d88b3
0,     112896,     112896,     1152,     2304, 0xccf06f6b
0,     114048,     114048,     1152,     2304, 0xbacd8458
0,     115200,     115200,     1152,     2304, 0xd6e588dd
0,     116352,     116352,     1152,     2304, 0xe04f7f54
0,     117504,     117504,     1152,     2304, 0x300f82c6
0,     118656,     118656,     1152,     2304, 0x66557b0a
0,     119808,     119808,     1152,     2304, 0x57db7c56
0,     120960,     120960,     1152,     2304, 0xa47b859b
0,     122112,     122112,     1152,     2304, 0x9d2479b4
0,     123264,     123264,     1152,     2304, 0xbaa9795c
0,     124416,     124416,     1152,     2304, 0x63947ce8
0,     125568,     125568,     1152,     2304, 0xd4a87782
0,     126720,     126720,     1152,     2304, 0x12b48442
0,     127872,     127872,     1152,     2304, 0xd7128050
0,     129024,     129024,     1152,     2304, 0x972e8119
0,     130176,     130176,     1152,     2304, 0x32478134
0,     131328,     131328,     1152,     2304, 0xe8dc7457
0,     132480,     132480,     1152,     2304, 0x77397739
0,     133632,     133632,     1152,     2304, 0x86257fc0
0,     134784,     134784,     1152,     2304, 0xe5167417
0,     135936,     135936,     1152,     2304, 0x8ca97f1f
0,     137088,     137088,     1152,     2304, 0xf6c2732a
0,     138240,     138240,     1152,     2304, 0xdbdc7f27
0,     139392,     139392,     1152,     2304, 0x696578e8
0,     140544,     140544,     1152,     2304, 0xbc9f8312
0,     141696,     141696,     1152,     2304, 0xc22f7023
0,     142848,     142848,     1152,     2304, 0x546a83e2
0,     144000,     144000,     1152,     2304, 0xe61386e9
0,     145152,     145152,     1152,     2304, 0x10e87338
0,     146304,     146304,     1152,     2304, 0x8203734f
0,     147456,     147456,     1152,     2304, 0x2e9e7719
0,     148608,     148608,     1152,     2304, 0xb1978b13
0,     149760,     149760,     1152,     2304, 0x7e777838
0,     150912,     150912,     1152,     2304, 0xa2cc7687
0,     152064,     152064,     1152,     2304, 0x03db659f
0,     153216,     153216,     1152,     2304, 0xba957bab
0,     154368,     154368,     1152,     2304, 0x0b78847d
0,     155520,     155520,     1152,     2304, 0x0cdc8408
0,     156672,     156672,     1152,     2304, 0x60e18ab3
0,     157824,     157824,     1152,     2304, 0x8dab7279
0,     158976,     158976,     1152,     2304, 0xa08e82de
0,     160128,     160128,     1152,     2304, 0x47c0835d
0,     161280,     161280,     1152,     2304, 0x002d88bb
0,     162432,     162432,     1152,     2304, 0xa90e6105
0,     163584,     163584,     1152,     2304, 0x37a586eb
0,     164736,     164736,     1152,     2304, 0x114b6b10
0,     165888,     165888,     1152,     2304, 0xa6368381
0,     167040,     167040,     1152,     2304, 0x4ae9754a
0,     168192,     168192,     1152,     2304, 0x970970f9
0,     169344,     169344,     1152,     2304, 0xd5918694
0,     170496,     170496,     1152,     2304, 0x140b7a1c
0,     171648,     171648,     1152,     2304, 0xef1a7e31
0,     172800,     172800,     1152,     2304, 0x054e7bdf
0,     173952,     173952,     1152,     2304, 0x285c709e
0,     175104,     175104,     1152,     2304, 0x7e7e7104
0,     176256,     176256,     1152,     2304, 0xe7d86eeb
0,     177408,     177408,     1152,     2304, 0x21af7a6e
0,     178560,     178560,     1152,     2304, 0x121b7924
0,     179712,     179712,     1152,     2304, 0x9f248195
0,     180864,     180864,     1152,     2304, 0x68c69136
0,     182016,     182016,     1152,     2304, 0xb9f86bd9
0,     183168,     183168,     1152,     2304, 0xc41677be
0,     184320,     184320,     1152,     2304, 0x68dd729c
0,     185472,     185472,     1152,     2304, 0x2449790a
0,     186624,     186624,     1152,     2304, 0x22298b9f
0,     187776,     187776,     1152,     2304, 0xe1588b53
0,     188928,     188928,     1152,     2304, 0x61d49144
0,     190080,     190080,     1152,     2304, 0x2fb07bc7
0,     191232,     191232,     1152,     2304, 0xaf877e63
0,     192384,     192384,     1152,     2304, 0x3c068808
0,     193536,     193536,     1152,     2304, 0x378376c3
0,     194688,     194688,     1152,     2304, 0xac926a09
0,     195840,     195840,     1152,     2304, 0x201d6a24
0,     196992,     196992,     1152,     2304, 0xdefa814e
0,     198144,     198144,     1152,     2304, 0x7f0f7039
0,     199296,     199296,     1152,     2304, 0x53c3770b
0,     200448,     200448,     1152,     2304, 0xd99383a5
0,     201600,     201600,     1152,     2304, 0xf2567e9a
0,     202752,     202752,     1152,     2304, 0xdb566c79
0,     203904,     203904,     1152,     2304, 0x438e7caa
0,     205056,     205056,     1152,     2304, 0xd8b17f86
0,     206208,     206208,     1152,     2304, 0x6592731d
0,     207360,     207360,     1152,     2304, 0x48fc7417
0,     208512,     208512,     1152,     2304, 0x10ff782c
0,     209664,     209664,     1152,     2304, 0x56fb7213
0,     210816,     210816,     1152,     2304, 0xfa168332
0,     211968,     211968,     1152,     2304, 0x05436ee5
0,     213120,     213120,     1152,     2304, 0x36667ae6
0,     214272,     214272,     1152,     2304, 0x450677da
0,     215424,     215424,     1152,     2304, 0x304f7c7e
0,     216576,     216576,     1152,     2304, 0xd75574a1
0,     217728,     217728,     1152,     2304, 0xc1c7799c
0,     218880,     218880,     1152,     2304, 0x23027df1
0,     220032,     220032,     1152,     2304, 0x66626692
